# Blender v3.1.2 OBJ File: 'blathers-reassemble.blend'
# www.blender.org
o head
v -2.006325 0.399979 -0.084610
v -1.203471 0.637151 1.137546
v -1.753283 1.268476 -0.331647
v -0.773185 2.629480 0.102391
v -1.209380 2.089746 -0.779108
v -0.100325 2.176759 -1.118007
v -0.694256 1.997212 -1.831912
v 0.421808 2.201444 -2.138744
v -0.270414 1.228228 -2.657050
v 1.021073 1.458453 -2.644143
v 1.371993 0.631313 -2.900522
v 2.402870 0.884099 -1.868428
v 1.512255 -0.466035 -2.387844
v 0.078135 -0.613749 -2.346424
v -1.040768 -0.681186 -1.498370
v -0.064526 -0.264153 -2.585255
v -1.367538 -0.353379 -1.499163
v -1.678039 0.312629 -1.587723
v -1.730157 -0.331722 -0.045827
v 1.420290 -0.115990 -2.671803
v -0.151813 0.417138 -2.859872
v -1.518851 1.142742 -1.616446
v -1.461957 -0.634851 -0.009708
v 1.174782 2.762869 -1.521288
v 1.106506 2.579997 -0.421487
v 0.337275 2.527322 0.219687
v 0.552961 3.344465 -3.431006
v 1.336527 2.272734 -3.605155
v -2.580887 3.129869 -0.818865
v -1.007769 1.602800 0.841729
v -2.803922 1.989211 -0.153988
v -0.969396 -0.119469 1.194616
v -0.069831 0.781911 1.805026
v 0.141900 1.696277 1.359234
v 0.521804 2.360538 0.869657
v 1.120599 2.401542 0.370546
v 1.719396 2.442546 -0.128565
v 2.310140 1.844754 -0.448047
v 1.907869 2.233981 -0.963222
v 2.007684 1.809287 -1.671724
v 2.848357 0.981739 -0.627355
v -0.318228 2.081541 0.892286
v 2.925563 0.305876 -0.557553
v 2.555555 -0.289589 -0.706536
v 2.478186 0.116609 -1.679027
v 2.207974 -0.345629 0.165933
v 2.222627 0.307967 0.727449
v 1.604155 -0.329630 0.847349
v 2.379867 0.962285 0.512110
v 1.710691 -0.116636 0.870695
v 1.439587 0.254348 1.380132
v 0.639896 -0.391639 1.270305
v -0.061655 -0.375004 1.445964
v 1.884431 1.664033 0.654189
v 2.393168 0.983087 1.774472
v 1.320922 1.625449 1.123888
v 0.039306 0.108235 1.848213
v 2.042126 0.303471 1.407005
v 1.142810 0.877578 1.543226
v -0.743628 1.533720 -2.693444
vt 0.234927 0.488777
vt 0.192532 0.371032
vt 0.534387 0.498282
vt 0.718226 0.960597
vt 0.677525 0.971180
vt 0.683403 0.956180
vt 0.709646 0.974603
vt 0.759623 0.969266
vt 0.745935 0.978453
vt 0.857818 0.904006
vt 0.816140 0.896931
vt 0.829070 0.889157
vt 0.841056 0.907320
vt 0.883677 0.913381
vt 0.855714 0.920480
vt 0.902265 0.925003
vt 0.909723 0.934306
vt 0.718501 0.908824
vt 0.702987 0.894028
vt 0.731125 0.898609
vt 0.686777 0.904683
vt 0.955262 0.961661
vt 0.946596 0.945998
vt 0.961032 0.947923
vt 0.941308 0.962997
vt 0.917454 0.963213
vt 0.951935 0.979345
vt 0.927419 0.979875
vt 0.662717 0.952561
vt 0.658310 0.967602
vt 0.964720 0.938244
vt 0.923648 0.943302
vt 0.791653 0.912788
vt 0.854845 0.928179
vt 0.804024 0.907891
vt 0.960785 0.902324
vt 0.954494 0.922455
vt 0.933898 0.913394
vt 0.916382 0.930004
vt 0.909723 0.916839
vt 0.941074 0.926252
vt 0.982755 0.925615
vt 0.791653 0.955437
vt 0.794134 0.951444
vt 0.824174 0.958205
vt 0.964720 0.978622
vt 0.720993 0.985559
vt 0.693315 0.983895
vt 0.909723 0.908801
vt 0.827624 0.974148
vt 0.827624 0.985826
vt 0.791653 0.975708
vt 0.865912 0.894435
vt 0.897761 0.902192
vt 0.846608 0.952505
vt 0.903734 0.938244
vt 0.759809 0.912960
vt 0.791653 0.893704
vt 0.748283 0.889157
vt 0.760624 0.988051
vt 0.716597 0.979751
vt 0.491396 0.664784
vt 0.027475 0.735433
vt 0.058494 0.673568
vt 0.470373 0.704544
vt 0.901957 0.713950
vt 0.499493 0.792377
vt 0.904511 0.819564
vt 0.661329 0.916599
vt 0.783114 0.936032
vt 0.783114 0.962690
vt 0.678851 0.948626
vt 0.847090 0.953033
vt 0.847091 0.918788
vt 0.678851 0.923540
vt 0.783115 0.909375
vt 0.486549 0.813287
vt 0.651813 0.929809
vt 0.884545 0.830907
vt 0.387180 0.898736
vt -0.000281 0.812150
vt 0.161515 0.992716
vt 0.507512 0.656695
vt 0.870367 0.737957
vt 0.847439 0.660869
vt 0.488445 0.710916
vt 0.025235 0.695849
vt 0.928842 0.979420
vt 0.159641 0.996508
vt 0.291967 0.848351
vt 0.046722 0.821883
vt 0.928842 0.892615
vt 0.052798 0.664389
vt 0.885439 0.659912
vt 0.537143 0.667960
vt 0.403855 0.599804
vt 0.234131 0.619944
vt 0.635694 0.587401
vt 0.896287 0.665520
vt 0.937929 0.592206
vt 0.785606 0.632914
vt 0.765203 0.613984
vt 0.829066 0.620774
vt 0.868096 0.679083
vt 0.931522 0.586879
vt 0.989418 0.639638
vt 0.193416 0.029211
vt 0.219922 0.158921
vt 0.546927 0.162410
vt 0.552683 0.518738
vt 0.153149 0.453181
vt 0.392864 0.427534
vt 0.139062 0.447637
vt 0.103113 0.330485
vt 0.460032 0.408681
vt 0.535313 0.373133
vt 0.601277 0.432084
vt 0.465866 0.437884
vt 0.515284 0.680747
vt 0.481333 0.586093
vt 0.975738 0.285663
vt 0.487970 0.203048
vt 0.988456 0.000205
vt 0.734945 0.417735
vt 0.734945 0.478548
vt 0.403517 0.447687
vt 0.231013 0.623216
vt 0.994825 0.290768
vt 0.962175 -0.003311
vt 0.441089 0.204645
vt 0.539148 0.512175
vt 0.214698 0.420405
vt 0.539148 0.398756
vt 0.318601 0.004215
vt 0.432037 0.049971
vt 0.299066 0.062968
vt 0.539714 0.163089
vt 0.119760 0.000447
vt 0.236826 0.162925
vn -0.0806 0.9966 -0.0148
vn -0.5517 0.4814 0.6811
vn -0.9735 0.0385 0.2255
vn -0.6641 0.0689 0.7444
vn -0.8952 0.4351 0.0965
vn -0.3857 0.8706 0.3054
vn -0.5963 0.7635 -0.2479
vn -0.2159 0.9598 -0.1792
vn -0.4282 0.7841 -0.4493
vn -0.2002 0.7901 -0.5793
vn -0.3609 0.3397 -0.8685
vn 0.2212 0.5066 -0.8333
vn 0.3945 0.1289 -0.9098
vn 0.7327 0.5604 -0.3861
vn 0.8432 0.1686 -0.5105
vn -0.6575 -0.5570 -0.5074
vn -0.3732 -0.4907 -0.7873
vn -0.1518 -0.6250 -0.7658
vn -0.7053 -0.5331 -0.4673
vn -0.8094 -0.1802 -0.5589
vn -0.8442 -0.5332 0.0545
vn -0.6216 -0.4343 0.6519
vn 0.2556 -0.4248 -0.8684
vn -0.2798 -0.1536 -0.9477
vn -0.8329 0.3429 -0.4343
vn 0.8877 -0.4489 -0.1019
vn 0.4600 -0.5558 -0.6924
vn 0.7928 -0.3074 -0.5262
vn 0.4601 -0.5557 -0.6924
vn -0.7338 -0.6296 0.2551
vn 0.3020 0.9151 -0.2672
vn -0.0479 0.9923 0.1143
vn 0.0403 0.9984 0.0404
vn -0.2490 -0.7131 0.6553
vn 0.7328 0.5603 -0.3861
vn 0.7709 0.6310 -0.0868
vn 0.7901 0.5989 -0.1307
vn -0.2746 0.5640 0.7788
vn -0.3857 0.8706 0.3053
vn -0.3245 0.5229 0.7882
vn -0.0610 -0.2986 0.9524
vn -0.6642 0.0689 0.7444
vn -0.2251 0.2791 0.9335
vn 0.1963 0.1128 0.9740
vn -0.0730 0.5141 0.8546
vn 0.2385 0.6485 0.7229
vn 0.0707 0.8100 0.5821
vn 0.2893 0.8612 0.4179
vn 0.6173 0.6733 0.4071
vn 0.4963 0.8374 0.2290
vn 0.8149 0.5680 0.1149
vn 0.7148 0.6834 -0.1482
vn 0.9750 -0.2004 0.0964
vn 0.9058 0.1668 0.3895
vn 0.8301 -0.3809 0.4073
vn 0.9347 0.3537 -0.0360
vn -0.3217 0.6210 0.7148
vn 0.2176 -0.4694 0.8557
vn 0.9749 -0.2005 0.0964
vn 0.8877 -0.4490 -0.1019
vn 0.7459 -0.4480 0.4928
vn 0.8300 -0.3810 0.4073
vn 0.4780 -0.6024 0.6392
vn 0.2359 -0.7406 0.6291
vn 0.8509 -0.1902 0.4896
vn 0.8566 -0.1018 0.5058
vn 0.5070 -0.6271 0.5914
vn 0.1068 -0.9886 0.1060
vn 0.2889 -0.9313 -0.2220
vn -0.1684 -0.9738 0.1528
vn -0.0610 -0.2987 0.9524
vn 0.2176 -0.4694 0.8558
vn 0.6173 0.6733 0.4070
vn 0.5277 0.5242 0.6684
vn 0.9058 0.1668 0.3894
vn 0.5278 0.5241 0.6684
vn 0.1963 0.1129 0.9740
vn 0.5838 -0.3686 0.7234
vn 0.2226 -0.3440 0.9122
vn 0.2639 -0.1421 0.9540
s off
f 58/1/1 47/2/1 51/3/1
s 1
f 30/4/2 1/5/3 2/6/4
f 30/4/2 3/7/5 1/5/3
f 4/8/6 3/7/5 30/4/2
f 4/8/6 5/9/7 3/7/5
f 6/10/8 5/11/7 4/12/6
f 6/10/8 7/13/9 5/11/7
f 8/14/10 7/13/9 6/10/8
f 8/14/10 9/15/11 7/13/9
f 10/16/12 9/15/11 8/14/10
f 10/16/12 11/17/13 9/15/11
f 40/18/14 11/19/13 10/20/12
f 40/18/14 12/21/15 11/19/13
f 15/22/16 16/23/17 14/24/18
f 17/25/19 16/23/17 15/22/16
f 17/25/19 18/26/20 16/23/17
f 19/27/21 18/26/20 17/25/19
f 19/27/21 1/28/3 18/26/20
f 32/29/22 1/5/3 19/30/21
f 32/29/22 2/6/4 1/5/3
f 16/23/17 20/31/23 14/24/18
f 16/23/17 21/32/24 20/31/23
f 18/26/20 21/32/24 16/23/17
f 18/33/20 9/15/11 21/34/24
f 22/35/25 9/15/11 18/33/20
f 22/35/25 7/13/9 9/15/11
f 5/11/7 7/13/9 22/35/25
f 44/36/26 13/37/27 45/38/28
f 45/38/28 11/39/13 12/40/15
f 45/38/28 20/41/23 11/39/13
f 13/37/29 20/41/23 45/38/28
f 13/37/29 14/42/18 20/41/23
f 19/43/21 23/44/30 32/45/22
f 19/27/21 15/22/16 23/46/30
f 17/25/19 15/22/16 19/27/21
f 22/47/25 3/7/5 5/9/7
f 22/47/25 1/5/3 3/7/5
f 18/48/20 1/5/3 22/47/25
f 6/10/8 24/49/31 8/14/10
f 6/50/8 25/51/32 24/52/31
f 26/53/33 25/54/32 6/10/8
f 23/44/30 53/55/34 32/45/22
f 21/34/24 11/17/13 20/56/23
f 21/34/24 9/15/11 11/17/13
f 10/20/12 24/57/31 40/18/14
f 10/16/12 8/14/10 24/49/31
f 40/18/35 27/58/36 24/57/31
f 40/18/35 28/59/37 27/58/36
f 29/60/38 30/4/2 4/8/39
f 29/60/38 31/61/40 30/4/2
f 4/12/6 26/53/33 6/10/8
f 57/62/41 2/63/42 32/64/22
f 57/62/41 33/65/43 2/63/42
f 59/66/44 33/65/43 57/62/41
f 59/66/44 34/67/45 33/65/43
f 56/68/46 34/67/45 59/66/44
f 56/68/46 35/69/47 34/67/45
f 36/70/48 35/71/47 56/72/46
f 36/70/48 26/73/33 35/71/47
f 25/74/32 26/73/33 36/70/48
f 54/75/49 36/70/48 56/72/46
f 54/75/49 37/76/50 36/70/48
f 38/77/51 37/78/50 54/79/49
f 38/77/51 39/80/52 37/78/50
f 40/81/35 39/80/52 38/77/51
f 40/81/35 24/82/31 39/80/52
f 43/83/53 49/84/54 47/85/55
f 43/83/53 41/86/56 49/84/54
f 12/87/15 41/86/56 43/83/53
f 12/87/15 40/81/35 41/86/56
f 4/88/6 35/71/47 26/73/33
f 4/89/6 42/90/57 35/69/47
f 30/91/2 42/90/57 4/89/6
f 30/91/2 34/67/45 42/90/57
f 38/77/51 41/86/56 40/81/35
f 38/77/51 49/84/54 41/86/56
f 54/79/49 49/84/54 38/77/51
f 33/65/43 30/91/2 2/63/42
f 33/65/43 34/67/45 30/91/2
f 24/82/31 37/78/50 39/80/52
f 24/92/31 25/74/32 37/76/50
f 25/74/32 36/70/48 37/76/50
f 43/83/53 45/93/28 12/87/15
f 57/62/41 51/94/58 59/66/44
f 35/69/47 42/90/57 34/67/45
f 43/95/59 44/96/60 45/97/28
f 43/95/59 46/98/61 44/96/60
f 47/99/62 46/98/61 43/95/59
f 47/99/62 48/100/63 46/98/61
f 51/101/58 48/102/63 47/103/62
f 51/104/58 52/105/64 48/106/63
f 58/107/65 47/108/66 49/109/54
f 58/110/67 50/111/68 47/112/69
f 51/113/70 50/114/68 58/115/67
f 51/116/70 47/117/69 50/118/68
f 57/119/71 52/105/64 51/104/72
f 57/119/71 53/120/34 52/105/64
f 54/121/73 55/122/74 49/123/75
f 54/124/73 56/125/46 55/126/74
f 53/120/34 57/119/41 32/127/22
f 56/128/46 59/129/44 55/130/74
f 59/131/44 49/132/75 55/133/76
f 49/134/54 59/135/77 58/136/78
f 58/137/79 59/138/44 51/139/80
o torso
v 0.255649 -0.461553 -2.484559
v 1.547572 -0.347633 -2.251611
v 0.832276 -1.295946 -2.226049
v -0.269755 -1.297543 -1.875533
v -0.268637 -1.435000 -1.779225
v -1.054470 -1.269411 -0.998473
v -0.959940 -1.617920 -0.921928
v -1.512187 -0.588816 -0.165665
v -0.791094 -2.138261 0.238872
v -0.516497 -0.639302 1.033772
v 0.770718 -1.615985 -2.131305
v -0.431116 -1.656677 -2.019939
v -0.950275 -2.238110 -1.279795
v 1.763803 -0.711878 -2.290223
v 1.206013 -2.645253 -1.545832
v 0.445148 -2.236544 -2.254911
v 0.047391 -2.464191 -1.910095
v 0.228932 -2.925534 -1.065719
v -0.502258 -2.464805 -1.526001
v -1.154671 -0.453333 -1.505561
v -0.132180 -0.358780 1.160170
v -1.485031 -0.541955 -0.121714
v 0.385926 -2.851760 0.394249
v 2.110400 -2.592025 -0.585067
v 1.545818 -2.850461 -0.416282
v 1.312831 -2.704011 0.482284
v 2.534317 -0.950553 -0.280793
v 1.575510 -0.873284 0.879512
v 2.434911 -0.130300 -0.646128
v 1.516787 -0.172248 0.607835
v 2.308472 -0.204188 -1.461965
v 2.145926 -1.162294 -1.570941
v 1.803497 -2.135350 -1.574210
v 0.032144 -0.915350 1.347205
v -0.497192 -0.414150 1.056530
v -0.984960 -1.118305 0.466164
v 0.032925 -2.594373 0.866653
v -0.558259 -2.647229 -0.312964
v 0.706497 -2.613799 -0.717824
v 0.379666 -2.614158 -0.489433
v -0.352394 -2.519129 -0.276784
v -0.174238 -2.346108 -1.046395
v 1.166760 -2.517419 -1.338364
v 0.373516 -2.345498 -1.429165
vt 0.402344 0.798828
vt 0.402344 0.798828
vt 0.402344 0.798828
vt 0.402344 0.798828
vt 0.402344 0.798828
vt 0.629734 0.606346
vt 0.805289 0.559185
vt 0.731882 0.727691
vt 0.806238 0.531571
vt 0.988167 0.503496
vt 0.972367 0.454109
vt 0.402344 0.798828
vt 0.402344 0.798828
vt 0.402344 0.798828
vt 0.402344 0.798828
vt 0.402344 0.798828
vt 0.308226 0.865406
vt 0.288051 0.782076
vt 0.261707 0.865406
vt 0.402344 0.798828
vt 0.628399 0.559464
vt 0.789280 0.477807
vt 0.897444 0.358614
vt 0.402344 0.798828
vt 0.402344 0.798828
vt 0.402344 0.798828
vt 0.402344 0.798828
vt 0.402344 0.798828
vt 0.402344 0.798828
vt 0.402344 0.798828
vt 0.909378 0.617823
vt 0.847964 0.544755
vt 0.909378 0.522374
vt 0.402344 0.798828
vt 0.354845 0.790509
vt 0.349759 0.786070
vt 0.353146 0.752533
vt 0.402344 0.798828
vt 0.633732 0.440415
vt 0.368335 0.788919
vt 0.366515 0.758402
vt 0.370034 0.750943
vt 0.402344 0.798828
vt 0.402344 0.798828
vt 0.402344 0.798828
vt 0.988167 0.653839
vt 0.402344 0.798828
vt 0.402344 0.798828
vt 0.948831 0.457117
vt 1.034769 0.384695
vt 0.839456 0.277429
vt -0.242188 0.570313
vt 0.000000 0.578125
vt -0.156250 0.497891
vt 0.693695 1.039373
vt 0.011360 0.770956
vt 0.692833 0.714675
vt 0.006259 1.016427
vt -0.281250 0.828125
vt -0.406250 0.953125
vt -0.328125 1.000000
vt 0.909769 0.714929
vt 0.667581 0.668054
vt 0.784769 0.839929
vt 0.730081 0.457117
vt 0.697947 0.940767
vt -0.000105 0.768798
vt -0.005405 1.015069
vt 0.653130 0.746382
vt 0.406250 0.953125
vt 0.281250 0.828125
vt 0.328125 1.000000
vt 0.833006 0.742520
vt 0.693988 0.552831
vt 0.985451 0.651488
vt -0.001010 -0.005955
vt 0.590022 0.041565
vt 0.985451 0.256474
vt 0.736692 0.316454
vt 0.721086 0.168892
vt 0.981523 0.046115
vt 0.786210 0.153381
vt 0.872148 0.225803
vt 0.629960 0.233615
vt 0.473710 0.153381
vt 0.002468 -0.012915
vt 0.699819 0.371003
vt 0.805371 0.338245
vt 0.877621 0.639625
vt 0.921703 0.513568
vt 0.833026 0.620299
vt 0.841557 0.495966
vt 0.841557 0.887916
vt 0.778741 0.817621
vt 0.847964 0.696248
vt 0.736924 0.522374
vt 0.847964 0.558311
vt 0.574108 0.100605
vt 0.743728 0.741848
vt 0.921703 0.725487
vt 0.911740 0.872855
vt 0.736924 0.732185
vn -0.0909 -0.0321 -0.9953
vn 0.5585 0.0422 -0.8284
vn 0.7537 0.6478 -0.1106
vn -0.2014 -0.3920 -0.8977
vn -0.1355 -0.3624 -0.9221
vn -0.5015 -0.4353 -0.7477
vn -0.5622 0.0007 -0.8270
vn -0.6858 -0.3351 -0.6460
vn -0.9524 -0.0302 -0.3033
vn -0.9842 -0.1239 -0.1262
vn -0.9008 -0.3640 -0.2366
vn -0.8669 -0.3999 0.2977
vn -0.3492 -0.7223 0.5969
vn -0.2318 0.5006 0.8341
vn 0.9198 -0.2911 -0.2632
vn 0.0572 0.0015 -0.9984
vn -0.4045 0.7082 -0.5786
vn -0.9912 -0.0835 -0.1032
vn -0.5399 -0.8376 0.0826
vn 0.2647 -0.8383 -0.4766
vn 0.2471 -0.0799 -0.9657
vn 0.5856 -0.4010 -0.7045
vn -0.1592 -0.8317 -0.5319
vn -0.1392 -0.9697 -0.2008
vn -0.4466 -0.8304 -0.3332
vn 0.9441 0.1778 0.2774
vn 0.8896 -0.4272 0.1618
vn -0.9224 0.3176 0.2199
vn -0.2318 0.5006 0.8340
vn -0.0071 0.2573 0.9663
vn -0.9224 0.3177 0.2199
vn -0.9959 -0.0114 -0.0898
vn -0.9369 -0.2043 -0.2836
vn -0.6700 -0.3528 -0.6532
vn 0.2357 -0.9718 0.0021
vn -0.0775 -0.9722 0.2211
vn -0.9370 -0.2043 -0.2835
vn -0.9425 -0.2426 -0.2299
vn -0.9876 -0.0002 -0.1572
vn 0.7681 -0.6295 -0.1170
vn 0.2357 -0.9718 0.0020
vn 0.4490 -0.6075 0.6552
vn 0.9441 0.1778 0.2775
vn 0.6316 0.0449 0.7740
vn 0.9341 0.0350 0.3552
vn 0.6258 -0.4631 0.6276
vn 0.5856 -0.4010 -0.7044
vn -0.2170 -0.3804 0.8990
vn -0.1651 0.5093 0.8446
vn -0.3828 -0.6255 0.6798
vn -0.0774 -0.9722 0.2211
vn -0.5091 -0.4542 -0.7311
vn -0.4419 -0.4757 -0.7606
vn -0.5629 -0.4748 -0.6765
vn -0.9434 -0.2730 0.1884
vn -0.9787 -0.1980 0.0536
vn -0.9332 -0.0856 -0.3489
vn -0.9662 -0.2565 0.0256
vn -0.9479 -0.3161 0.0405
vn -0.9417 -0.3009 0.1506
vn -0.0934 -0.9956 -0.0065
vn -0.1037 -0.9225 -0.3719
vn 0.0274 -0.9954 -0.0914
vn -0.3957 -0.4043 -0.8246
vn -0.6376 -0.4049 -0.6554
vn -0.7352 -0.6422 0.2168
vn -0.8940 -0.4369 0.0996
vn -0.8768 -0.3933 -0.2767
vn -0.0854 -0.3219 0.9429
vn -0.3138 -0.9228 -0.2233
s 1
f 74/140/81 62/141/82 91/142/83
f 74/140/81 61/143/84 62/141/82
f 63/144/85 61/143/84 74/140/81
f 63/145/85 64/146/86 61/147/84
f 65/148/87 64/146/86 63/145/85
f 65/148/87 66/149/88 64/146/86
f 67/150/89 66/149/88 65/148/87
f 67/151/89 68/152/90 66/153/91
f 69/154/92 68/152/90 67/151/89
f 69/154/92 96/155/93 68/152/90
f 95/156/94 70/157/95 96/158/93
f 71/159/96 63/144/85 74/140/81
f 71/160/96 65/148/87 63/145/85
f 72/161/97 65/148/87 71/160/96
f 72/161/97 67/150/89 65/148/87
f 73/162/98 67/150/89 72/161/97
f 73/163/98 69/154/92 67/151/89
f 98/164/99 69/154/92 73/163/98
f 75/165/100 76/166/101 93/167/102
f 75/165/100 77/168/103 76/166/101
f 78/169/104 77/168/103 75/165/100
f 78/170/104 79/171/105 77/172/103
f 98/164/99 79/173/105 78/169/104
f 98/164/99 73/163/98 79/173/105
f 89/174/106 91/175/83 62/176/82
f 93/167/102 74/140/81 92/177/107
f 93/167/102 71/159/96 74/140/81
f 76/166/101 71/159/96 93/167/102
f 76/178/101 72/161/97 71/160/96
f 82/179/108 95/180/109 81/181/110
f 82/182/111 68/152/112 95/183/109
f 82/182/111 80/184/113 68/152/112
f 64/146/86 80/185/114 61/147/84
f 64/146/86 66/149/88 80/185/114
f 85/186/115 78/169/104 75/165/100
f 85/186/115 83/187/116 78/169/104
f 80/184/117 66/153/118 68/152/119
f 78/169/104 83/187/116 98/164/99
f 84/188/120 85/189/121 75/190/100
f 84/191/120 86/192/122 85/193/121
f 89/194/123 88/195/124 87/196/125
f 89/194/123 90/197/126 88/195/124
f 87/198/125 91/199/83 89/200/123
f 87/201/125 92/202/107 91/203/83
f 84/188/120 92/202/107 87/201/125
f 84/188/120 93/204/127 92/202/107
f 75/190/100 93/204/127 84/188/120
f 81/205/110 88/206/124 90/207/126
f 81/205/110 94/208/128 88/206/124
f 95/209/129 94/210/128 81/211/110
f 95/212/129 96/213/93 94/214/128
f 94/208/128 86/215/122 88/206/124
f 94/208/128 97/216/130 86/215/122
f 96/213/93 97/217/130 94/214/128
f 96/213/93 69/218/92 97/217/130
f 98/219/99 97/217/130 69/218/92
f 98/220/99 83/221/131 97/222/130
f 83/221/131 86/223/122 97/222/130
f 83/221/131 85/224/121 86/223/122
f 86/225/122 87/196/125 88/195/124
f 72/161/132 77/226/133 79/227/134
f 67/228/135 69/229/136 96/230/137
f 69/231/138 66/232/139 67/233/140
f 83/234/141 75/235/142 85/236/143
f 86/225/122 84/237/120 87/196/125
f 79/227/134 73/162/144 72/161/132
f 72/161/132 76/178/145 77/226/133
f 96/230/137 68/238/146 66/239/147
f 68/238/148 80/240/149 66/239/118
f 66/239/147 67/228/135 96/230/137
f 83/234/141 98/241/150 75/235/142
l 99 104
l 100 102
l 103 104
l 101 102
l 103 99
l 101 100
