# Blender v3.1.2 OBJ File: 'head.blend'
# www.blender.org
o head
v -2.414504 -0.179029 -0.151011
v -1.520570 0.042083 0.752292
v -2.268712 0.587147 -0.392834
v -1.397264 1.799142 -0.175169
v -1.909299 1.323504 -0.857759
v -1.027213 1.438281 -1.341723
v -1.654623 1.269392 -1.847883
v -0.764369 1.486095 -2.303920
v -1.417099 0.621628 -2.638344
v -0.321392 0.863684 -2.852492
v -0.043263 0.157708 -3.146122
v 1.010720 0.401549 -2.444977
v 0.200022 -0.797302 -2.751100
v -1.010018 -0.972686 -2.464088
v -1.810668 -1.075445 -1.544058
v -1.184402 -0.670915 -2.636941
v -2.098985 -0.800794 -1.481732
v -2.399121 -0.230532 -1.491815
v -2.150496 -0.807106 -0.178304
v 0.060801 -0.493080 -2.971394
v -1.327864 -0.078405 -2.844922
v -2.293377 0.497191 -1.531518
v -1.906542 -1.062507 -0.199758
v -0.029986 1.993308 -1.902175
v 0.112597 1.821829 -0.955442
v -0.427326 1.745155 -0.273465
v -0.916216 2.496831 -3.410839
v -0.247591 1.591293 -3.714829
v -3.115862 2.184460 -0.632466
v -1.435190 0.891385 0.480563
v -3.153771 1.178588 -0.044035
v -1.288433 -0.609209 0.747653
v -0.440558 0.198621 1.122740
v -0.366623 1.005203 0.719527
v -0.149723 1.600017 0.245295
v 0.270571 1.659704 -0.285579
v 0.690866 1.719389 -0.816453
v 1.155264 1.221328 -1.202766
v 0.709452 1.551719 -1.564579
v 0.681355 1.191954 -2.192843
v 1.607718 0.489496 -1.464434
v -0.853046 1.329826 0.409010
v 1.706060 -0.096729 -1.429173
v 1.382148 -0.625471 -1.499943
v 1.131425 -0.265567 -2.308866
v 1.242623 -0.693544 -0.695539
v 1.335308 -0.129541 -0.209267
v 0.848720 -0.705475 -0.007484
v 1.411502 0.446877 -0.410449
v 0.937272 -0.516908 -0.003123
v 0.785692 -0.207590 0.484952
v 0.104172 -0.794579 0.522877
v -0.462822 -0.804459 0.797133
v 0.993698 1.040118 -0.190614
v 1.646371 0.453764 0.663591
v 0.598172 0.983951 0.308975
v -0.319803 -0.384420 1.129692
v 1.302333 -0.145570 0.401905
v 0.543212 0.323573 0.686286
v -1.835835 0.872444 -2.580776
vt 0.234927 0.488777
vt 0.192532 0.371032
vt 0.534387 0.498282
vt 0.718226 0.960597
vt 0.677525 0.971180
vt 0.683403 0.956180
vt 0.709646 0.974603
vt 0.759623 0.969266
vt 0.745935 0.978453
vt 0.857818 0.904006
vt 0.816140 0.896931
vt 0.829070 0.889157
vt 0.841056 0.907320
vt 0.883677 0.913381
vt 0.855714 0.920480
vt 0.902265 0.925003
vt 0.909723 0.934306
vt 0.718501 0.908824
vt 0.702987 0.894028
vt 0.731125 0.898609
vt 0.686777 0.904683
vt 0.955262 0.961661
vt 0.946596 0.945998
vt 0.961032 0.947923
vt 0.941308 0.962997
vt 0.917454 0.963213
vt 0.951935 0.979345
vt 0.927419 0.979875
vt 0.662717 0.952561
vt 0.658310 0.967602
vt 0.964720 0.938244
vt 0.923648 0.943302
vt 0.791653 0.912788
vt 0.854845 0.928179
vt 0.804024 0.907891
vt 0.960785 0.902324
vt 0.954494 0.922455
vt 0.933898 0.913394
vt 0.916382 0.930004
vt 0.909723 0.916839
vt 0.941074 0.926252
vt 0.982755 0.925615
vt 0.791653 0.955437
vt 0.794134 0.951444
vt 0.824174 0.958205
vt 0.964720 0.978622
vt 0.720993 0.985559
vt 0.693315 0.983895
vt 0.909723 0.908801
vt 0.827624 0.974148
vt 0.827624 0.985826
vt 0.791653 0.975708
vt 0.865912 0.894435
vt 0.897761 0.902192
vt 0.846608 0.952505
vt 0.903734 0.938244
vt 0.759809 0.912960
vt 0.791653 0.893704
vt 0.748283 0.889157
vt 0.760624 0.988051
vt 0.716597 0.979751
vt 0.491396 0.664784
vt 0.027475 0.735433
vt 0.058494 0.673568
vt 0.470373 0.704544
vt 0.901957 0.713950
vt 0.499493 0.792377
vt 0.904511 0.819564
vt 0.661329 0.916599
vt 0.783114 0.936032
vt 0.783114 0.962690
vt 0.678851 0.948626
vt 0.847090 0.953033
vt 0.847091 0.918788
vt 0.678851 0.923540
vt 0.783115 0.909375
vt 0.486549 0.813287
vt 0.651813 0.929809
vt 0.884545 0.830907
vt 0.387180 0.898736
vt -0.000281 0.812150
vt 0.161515 0.992716
vt 0.507512 0.656695
vt 0.870367 0.737957
vt 0.847439 0.660869
vt 0.488445 0.710916
vt 0.025235 0.695849
vt 0.928842 0.979420
vt 0.159641 0.996508
vt 0.291967 0.848351
vt 0.046722 0.821883
vt 0.928842 0.892615
vt 0.052798 0.664389
vt 0.885439 0.659912
vt 0.537143 0.667960
vt 0.403855 0.599804
vt 0.234131 0.619944
vt 0.635694 0.587401
vt 0.896287 0.665520
vt 0.937929 0.592206
vt 0.785606 0.632914
vt 0.765203 0.613984
vt 0.829066 0.620774
vt 0.868096 0.679083
vt 0.931522 0.586879
vt 0.989418 0.639638
vt 0.193416 0.029211
vt 0.219922 0.158921
vt 0.546927 0.162410
vt 0.552683 0.518738
vt 0.153149 0.453181
vt 0.392864 0.427534
vt 0.139062 0.447637
vt 0.103113 0.330485
vt 0.460032 0.408681
vt 0.535313 0.373133
vt 0.601277 0.432084
vt 0.465866 0.437884
vt 0.515284 0.680747
vt 0.481333 0.586093
vt 0.975738 0.285663
vt 0.487970 0.203048
vt 0.988456 0.000205
vt 0.734945 0.417735
vt 0.734945 0.478548
vt 0.403517 0.447687
vt 0.231013 0.623216
vt 0.994825 0.290768
vt 0.962175 -0.003311
vt 0.441089 0.204645
vt 0.539148 0.512175
vt 0.214698 0.420405
vt 0.539148 0.398756
vt 0.318601 0.004215
vt 0.432037 0.049971
vt 0.299066 0.062968
vt 0.539714 0.163089
vt 0.119760 0.000447
vt 0.236826 0.162925
vn -0.1160 0.9930 0.0198
vn -0.4174 0.4532 0.7876
vn -0.9078 -0.0001 0.4194
vn -0.5004 0.0363 0.8651
vn -0.8711 0.4005 0.2844
vn -0.3450 0.8524 0.3930
vn -0.6602 0.7434 -0.1076
vn -0.2806 0.9530 -0.1143
vn -0.5375 0.7723 -0.3386
vn -0.3411 0.7882 -0.5122
vn -0.5419 0.3352 -0.7707
vn 0.0291 0.5233 -0.8516
vn 0.1960 0.1532 -0.9686
vn 0.6190 0.5913 -0.5170
vn 0.7151 0.2052 -0.6683
vn -0.7276 -0.5757 -0.3730
vn -0.5089 -0.4959 -0.7036
vn -0.2833 -0.6220 -0.7300
vn -0.7671 -0.5540 -0.3235
vn -0.8997 -0.2043 -0.3858
vn -0.7966 -0.5648 0.2155
vn -0.4604 -0.4640 0.7568
vn 0.0876 -0.4058 -0.9098
vn -0.4617 -0.1539 -0.8736
vn -0.9152 0.3163 -0.2496
vn 0.8632 -0.4145 -0.2883
vn 0.3279 -0.5309 -0.7814
vn 0.6789 -0.2721 -0.6819
vn 0.3280 -0.5309 -0.7814
vn -0.6444 -0.6592 0.3877
vn 0.2097 0.9285 -0.3066
vn -0.0576 0.9886 0.1394
vn 0.0134 0.9987 0.0493
vn -0.6444 -0.6592 0.3876
vn -0.0855 -0.7288 0.6794
vn -0.4603 -0.4640 0.7568
vn 0.7149 0.6602 -0.2305
vn 0.2096 0.9285 -0.3066
vn 0.7258 0.6292 -0.2779
vn -0.1292 0.5451 0.8284
vn -0.4174 0.4533 0.7876
vn -0.1746 0.5021 0.8470
vn 0.1448 -0.3108 0.9394
vn -0.5004 0.0362 0.8651
vn -0.0394 0.2606 0.9646
vn 0.3868 0.1097 0.9156
vn 0.0853 0.5019 0.8607
vn 0.3585 0.6492 0.6708
vn 0.1602 0.8059 0.5700
vn 0.3388 0.8669 0.3657
vn 0.6639 0.6914 0.2850
vn 0.5036 0.8528 0.1383
vn 0.8013 0.5967 -0.0430
vn 0.6457 0.7111 -0.2782
vn 0.9804 -0.1650 -0.1075
vn 0.9599 0.1963 0.2000
vn 0.9082 -0.3541 0.2230
vn 0.8950 0.3886 -0.2190
vn -0.1903 0.6010 0.7763
vn 0.4035 -0.4700 0.7850
vn 0.8631 -0.4145 -0.2883
vn 0.8456 -0.4252 0.3227
vn 0.9082 -0.3541 0.2231
vn 0.6187 -0.5910 0.5177
vn 0.3845 -0.7380 0.5546
vn 0.9389 -0.1636 0.3028
vn 0.9447 -0.0752 0.3191
vn 0.6381 -0.6140 0.4645
vn 0.1600 -0.9850 0.0643
vn 0.2693 -0.9174 -0.2928
vn -0.1002 -0.9810 0.1663
vn -0.0855 -0.7288 0.6793
vn 0.6638 0.6914 0.2850
vn 0.6347 0.5364 0.5564
vn 0.9599 0.1962 0.2000
vn 0.3869 0.1097 0.9156
vn 0.9599 0.1963 0.1999
vn 0.6347 0.5363 0.5563
vn 0.3868 0.1098 0.9156
vn 0.7314 -0.3542 0.5828
vn 0.4156 -0.3451 0.8416
vn 0.4576 -0.1423 0.8777
s 1
f 58/1/1 47/2/1 51/3/1
f 30/4/2 1/5/3 2/6/4
f 30/4/2 3/7/5 1/5/3
f 4/8/6 3/7/5 30/4/2
f 4/8/6 5/9/7 3/7/5
f 6/10/8 5/11/7 4/12/6
f 6/10/8 7/13/9 5/11/7
f 8/14/10 7/13/9 6/10/8
f 8/14/10 9/15/11 7/13/9
f 10/16/12 9/15/11 8/14/10
f 10/16/12 11/17/13 9/15/11
f 40/18/14 11/19/13 10/20/12
f 40/18/14 12/21/15 11/19/13
f 15/22/16 16/23/17 14/24/18
f 17/25/19 16/23/17 15/22/16
f 17/25/19 18/26/20 16/23/17
f 19/27/21 18/26/20 17/25/19
f 19/27/21 1/28/3 18/26/20
f 32/29/22 1/5/3 19/30/21
f 32/29/22 2/6/4 1/5/3
f 16/23/17 20/31/23 14/24/18
f 16/23/17 21/32/24 20/31/23
f 18/26/20 21/32/24 16/23/17
f 18/33/20 9/15/11 21/34/24
f 22/35/25 9/15/11 18/33/20
f 22/35/25 7/13/9 9/15/11
f 5/11/7 7/13/9 22/35/25
f 44/36/26 13/37/27 45/38/28
f 45/38/28 11/39/13 12/40/15
f 45/38/28 20/41/23 11/39/13
f 13/37/29 20/41/23 45/38/28
f 13/37/29 14/42/18 20/41/23
f 19/43/21 23/44/30 32/45/22
f 19/27/21 15/22/16 23/46/30
f 17/25/19 15/22/16 19/27/21
f 22/47/25 3/7/5 5/9/7
f 22/47/25 1/5/3 3/7/5
f 18/48/20 1/5/3 22/47/25
f 6/10/8 24/49/31 8/14/10
f 6/50/8 25/51/32 24/52/31
f 26/53/33 25/54/32 6/10/8
f 23/44/34 53/55/35 32/45/36
f 21/34/24 11/17/13 20/56/23
f 21/34/24 9/15/11 11/17/13
f 10/20/12 24/57/31 40/18/14
f 10/16/12 8/14/10 24/49/31
f 40/18/14 27/58/37 24/57/38
f 40/18/14 28/59/39 27/58/37
f 29/60/40 30/4/41 4/8/6
f 29/60/40 31/61/42 30/4/41
f 4/12/6 26/53/33 6/10/8
f 57/62/43 2/63/44 32/64/22
f 57/62/43 33/65/45 2/63/44
f 59/66/46 33/65/45 57/62/43
f 59/66/46 34/67/47 33/65/45
f 56/68/48 34/67/47 59/66/46
f 56/68/48 35/69/49 34/67/47
f 36/70/50 35/71/49 56/72/48
f 36/70/50 26/73/33 35/71/49
f 25/74/32 26/73/33 36/70/50
f 54/75/51 36/70/50 56/72/48
f 54/75/51 37/76/52 36/70/50
f 38/77/53 37/78/52 54/79/51
f 38/77/53 39/80/54 37/78/52
f 40/81/14 39/80/54 38/77/53
f 40/81/14 24/82/38 39/80/54
f 43/83/55 49/84/56 47/85/57
f 43/83/55 41/86/58 49/84/56
f 12/87/15 41/86/58 43/83/55
f 12/87/15 40/81/14 41/86/58
f 4/88/6 35/71/49 26/73/33
f 4/89/6 42/90/59 35/69/49
f 30/91/41 42/90/59 4/89/6
f 30/91/41 34/67/47 42/90/59
f 38/77/53 41/86/58 40/81/14
f 38/77/53 49/84/56 41/86/58
f 54/79/51 49/84/56 38/77/53
f 33/65/45 30/91/41 2/63/44
f 33/65/45 34/67/47 30/91/41
f 24/82/38 37/78/52 39/80/54
f 24/92/38 25/74/32 37/76/52
f 25/74/32 36/70/50 37/76/52
f 43/83/55 45/93/28 12/87/15
f 57/62/43 51/94/60 59/66/46
f 35/69/49 42/90/59 34/67/47
f 43/95/55 44/96/61 45/97/28
f 43/95/55 46/98/62 44/96/61
f 47/99/63 46/98/62 43/95/55
f 47/99/63 48/100/64 46/98/62
f 51/101/60 48/102/64 47/103/63
f 51/104/60 52/105/65 48/106/64
f 58/107/66 47/108/67 49/109/56
f 58/110/68 50/111/69 47/112/70
f 51/113/71 50/114/69 58/115/68
f 51/116/71 47/117/70 50/118/69
f 57/119/43 52/105/65 51/104/60
f 57/119/43 53/120/72 52/105/65
f 54/121/73 55/122/74 49/123/75
f 54/124/73 56/125/48 55/126/74
f 53/120/72 57/119/43 32/127/22
f 56/128/48 59/129/46 55/130/74
f 59/131/76 49/132/77 55/133/78
f 49/134/56 59/135/79 58/136/80
f 58/137/81 59/138/46 51/139/82
