# Blender v3.1.2 OBJ File: 'lower-rwing.blend'
# www.blender.org
o lower-rwing
v 3.224547 -0.962857 -0.517056
v 3.491221 0.267128 -0.878673
v 3.706944 -0.582796 -0.128834
v 3.002261 -0.191866 -1.194936
v 2.620552 0.476604 -1.677178
v 3.058559 1.104565 -1.437478
vt 0.488281 0.677083
vt 0.371094 0.500000
vt 0.500000 0.500000
vt 0.371094 0.677083
vt 0.250000 0.677083
vt 0.250000 0.500000
vn 0.7786 -0.5937 -0.2030
vn 0.6891 -0.2528 -0.6791
vn 0.7363 -0.3328 -0.5891
vn 0.7328 -0.2033 -0.6494
vn 0.4422 0.2361 -0.8653
vn 0.6448 -0.1649 -0.7463
s 1
f 1/1/1 2/2/2 3/3/3
f 1/1/1 4/4/4 2/2/2
f 2/2/2 4/4/4 5/5/5
f 5/5/5 6/6/6 2/2/2
